<svg aria-hidden="true" style="position:absolute;width:0;height:0;overflow:hidden" xmlns="http://www.w3.org/2000/svg"><defs>
<symbol id="icon-send" viewBox="0 0 64 64"><path d="M64 0 0 36l20.453 7.573L52 14 28.005 46.373l.019.005-.024-.005V64l11.469-13.381L54.002 56l9.997-56z"/></symbol>
<symbol id="icon-email-blk" viewBox="0 0 64 64"><path d="M53.333 10.667H10.666c-2.933 0-5.305 2.4-5.305 5.333l-.028 32c0 2.933 2.4 5.333 5.333 5.333h42.667c2.933 0 5.333-2.4 5.333-5.333V16c0-2.933-2.4-5.333-5.333-5.333zm-1.066 11.335L33.415 33.785c-.403.252-.891.401-1.415.401s-1.013-.149-1.427-.407l.011.007-18.852-11.783a2.265 2.265 0 1 1 2.408-3.835l-.008-.005 17.867 11.172L49.866 18.16a2.265 2.265 0 1 1 2.411 3.835l-.01.006z"/></symbol>
<symbol id="icon-phone-blk" viewBox="0 0 64 64"><path d="m49.764 39.548-6.535-.747a5.104 5.104 0 0 0-4.221 1.465l-4.736 4.736c-7.338-3.788-13.17-9.621-16.855-16.744l-.102-.216 4.764-4.754a5.104 5.104 0 0 0 1.462-4.245l.002.025-.747-6.485a5.154 5.154 0 0 0-5.114-4.551H13.224c-2.908 0-5.326 2.418-5.148 5.323 1.365 21.973 18.94 39.524 40.889 40.889 2.905.178 5.326-2.24 5.326-5.148v-4.477a5.1 5.1 0 0 0-4.506-5.065l-.024-.002z"/></symbol>
<symbol id="icon-person-blk" viewBox="0 0 64 64"><path d="M32 32c5.891 0 10.667-4.776 10.667-10.667S37.891 10.666 32 10.666s-10.667 4.776-10.667 10.667S26.109 32 32 32zm0 5.333c-7.122 0-21.333 3.573-21.333 10.667v2.667a2.675 2.675 0 0 0 2.667 2.667h37.333a2.677 2.677 0 0 0 2.667-2.667V48c0-7.093-14.215-10.667-21.333-10.667z"/></symbol></defs></svg>