<svg aria-hidden="true" style="position:absolute;width:0;height:0;overflow:hidden" xmlns="http://www.w3.org/2000/svg"><defs><symbol id="icon-mail" viewBox="0 0 85 64"><path  d="M77.333 0H8C3.589 0 0 3.589 0 8v48c0 4.411 3.589 8 8 8h69.333c4.411 0 8-3.589 8-8V8c0-4.411-3.589-8-8-8zm0 5.333c.363 0 .709.075 1.024.208L42.666 36.474 6.975 5.541a2.607 2.607 0 0 1 1.024-.208h69.334zm0 53.334H8A2.667 2.667 0 0 1 5.333 56V11.173l35.584 30.843c.465.406 1.078.654 1.749.654s1.284-.248 1.752-.657l-.003.003 35.584-30.843V56a2.667 2.667 0 0 1-2.667 2.667z"/></symbol><symbol id="icon-smartphone" viewBox="0 0 40 64"><path  d="M34 0H6C2.692 0 0 2.692 0 6v52c0 3.308 2.692 6 6 6h28c3.308 0 6-2.692 6-6V6c0-3.308-2.692-6-6-6zM6 4h28a2 2 0 0 1 2 2v42H4V6a2 2 0 0 1 2-2zm28 56H6a2 2 0 0 1-2-2v-6h32v6a2 2 0 0 1-2 2z"/><path  d="M9.416 54.956a1.778 1.778 0 0 1 .002 2.639l-.002.001c-.372.341-.87.549-1.416.549s-1.044-.209-1.418-.551l.002.001a1.778 1.778 0 0 1-.002-2.639l.002-.001c.372-.341.87-.549 1.416-.549s1.044.209 1.418.551l-.002-.001z"/></symbol><symbol id="icon-cl6" viewBox="0 0 113 64"><path  d="M56.987 29.235a3.12 3.12 0 0 1-.645-2.13l-.001.01v-3.076c0-.942.213-1.659.642-2.149.427-.491 1.162-.734 2.203-.732.978 0 1.674.209 2.083.626.448.532.667 1.183.617 1.839v.723h-1.749v-.733a3.823 3.823 0 0 0-.051-.716.7.7 0 0 0-.249-.425l-.001-.001a1.007 1.007 0 0 0-.637-.165h.003a1.065 1.065 0 0 0-.671.177l.004-.002a.818.818 0 0 0-.289.464l-.001.005a3.49 3.49 0 0 0-.069.764v-.003 3.732c-.028.359.05.72.224 1.047a.82.82 0 0 0 .344.252l.006.002a.943.943 0 0 0 .457.059h-.004a.95.95 0 0 0 .622-.17l-.003.002a.754.754 0 0 0 .261-.449l.001-.005a3.99 3.99 0 0 0 .054-.748v-.757h1.75v.691a2.804 2.804 0 0 1-.609 1.94l.004-.006c-.402.457-1.088.685-2.095.685s-1.769-.244-2.199-.751zm7.287.032c-.443-.48-.663-1.177-.663-2.099v-3.235c0-.914.221-1.605.663-2.075s1.181-.703 2.218-.701c1.029 0 1.764.235 2.207.701.442.469.667 1.161.667 2.075v3.234c0 .914-.224 1.615-.674 2.097-.449.481-1.181.722-2.199.722s-1.772-.244-2.219-.719zm3.033-.776a1.8 1.8 0 0 0 .21-.957v-3.962a1.76 1.76 0 0 0-.211-.948l.005.009a.83.83 0 0 0-.352-.255l-.006-.002a.947.947 0 0 0-.467-.055h.005a.973.973 0 0 0-.469.058l.007-.002a.834.834 0 0 0-.358.256l-.001.002a1.72 1.72 0 0 0-.21.939v3.98c-.021.33.05.658.21.958.101.1.228.181.369.237a1.224 1.224 0 0 0 .908-.003l-.008.003c.142-.055.267-.137.369-.237v-.019zm4.164-7.239h1.884l1.417 5.968 1.451-5.968h1.833l.186 8.614h-1.356l-.145-5.987-1.398 5.987h-1.088l-1.449-6.01-.134 6.01h-1.37l.171-8.614zm8.881 0h2.935c1.691 0 2.537.815 2.537 2.446 0 1.562-.891 2.342-2.671 2.34h-.999v3.828h-1.812l.011-8.615zm2.508 3.681c.179.02.361.006.533-.042.171-.047.331-.125.463-.23.208-.291.3-.633.261-.973a2.667 2.667 0 0 0-.092-.801l.004.019a.628.628 0 0 0-.134-.237l.001.001a.767.767 0 0 0-.224-.171l-.004-.002a1.848 1.848 0 0 0-.813-.138h.005-.703v2.575h.704zm5.577-3.681h1.946l1.997 8.614h-1.69l-.395-1.986H88.56l-.405 1.986h-1.714l1.996-8.614zm1.663 5.631-.678-3.616-.677 3.616H90.1zm3.891-5.631h1.269l2.427 4.914v-4.914h1.504v8.614h-1.206l-2.443-5.131v5.131h-1.554l.003-8.614zm8.723 5.329-2.018-5.317h1.7l1.232 3.417 1.155-3.417h1.664l-1.994 5.318v3.284h-1.739v-3.285zm-42.929 7.053v.45h-1.478v3.501h-.62v-3.501h-1.486v-.45h3.584zm4.634 3.951h-.492a.215.215 0 0 1-.122-.038h.001a.203.203 0 0 1-.078-.089l-.001-.001-.428-.939h-2.051l-.427.939a.261.261 0 0 1-.066.107.22.22 0 0 1-.124.038h-.488l1.812-3.951h.629l1.835 3.936zm-3-1.467h1.71l-.725-1.609a2.695 2.695 0 0 1-.128-.352l-.005-.02c-.026.075-.047.147-.068.21l-.066.165-.717 1.605zm6.123 1.079c.114.005.227.005.341 0 .097-.009.194-.025.289-.047.089-.018.176-.043.261-.071.08-.029.16-.063.242-.097v-.889h-.731a.147.147 0 0 1-.092-.032.087.087 0 0 1-.028-.032v-.001a.083.083 0 0 1-.009-.036v-.307h1.406V37.2c-.22.137-.474.247-.745.317l-.019.004c-.149.038-.3.065-.453.082a5.493 5.493 0 0 1-.529.025h-.023c-.319 0-.625-.054-.909-.153l.019.006a2.237 2.237 0 0 1-.728-.415l.003.003a1.912 1.912 0 0 1-.462-.615l-.005-.012a1.95 1.95 0 0 1-.167-.794v-.027.001-.024c0-.29.06-.565.168-.815l-.005.013c.103-.235.263-.448.467-.626.207-.178.453-.317.725-.41.309-.101.64-.151.971-.147.169 0 .337.011.503.034a2.5 2.5 0 0 1 .431.1c.128.041.249.094.363.157.111.062.217.13.316.206l-.174.244a.148.148 0 0 1-.058.053h-.001a.176.176 0 0 1-.083.021.228.228 0 0 1-.113-.032l.001.001a2.305 2.305 0 0 1-.189-.1l.01.006a1.49 1.49 0 0 0-.231-.103l-.011-.003a2.119 2.119 0 0 0-.32-.085l-.014-.002a2.688 2.688 0 0 0-.436-.034h-.025.001-.022c-.242 0-.475.04-.693.114l.015-.005a1.39 1.39 0 0 0-.866.794l-.003.009a1.844 1.844 0 0 0 .005 1.33l-.004-.013c.079.187.203.355.363.498.148.135.329.242.528.313.23.068.475.095.718.078zm5.776-.062h1.979v.45h-2.582v-3.951h.619l-.014 3.501zm4.037.45h-.619v-3.951h.619v3.951zm2.305-3.932a.307.307 0 0 1 .095.071l2.649 2.978a.77.77 0 0 1 0-.144v.003-2.944h.54v3.968h-.311l-.02.001a.283.283 0 0 1-.116-.024l.002.001a.361.361 0 0 1-.097-.074l-2.645-2.976v3.072h-.518v-3.951h.322c.035 0 .07.006.101.018zm7.845-.019v.434H85.31v1.305h1.779v.419H85.31v1.348h2.195v.435h-2.833v-3.941h2.833zM22.573 9.233l27.515 6.745v23.635l-27.515-6.741V9.233zm-1.766-2.016v26.802l31.04 7.612V14.832l-31.04-7.614z"/><path  d="M37.444 54.071 6.4 46.453V19.655l31.044 7.615v26.801z"/><path  d="m21.323 8.929 27.155 6.66-11.549 9.973-27.158-6.663 11.552-9.971zm-.516-1.711L6.4 19.655l31.044 7.616 14.404-12.439-31.04-7.614zM39.19 52.564l12.658-10.932-12.659-3.104v14.037z"/></symbol><symbol id="icon-cl5" viewBox="0 0 113 64"><path  d="M28.541 47.717c.26.294.398.663.391 1.042l.002.079c0 .233-.052.454-.146.651l.004-.009a1.68 1.68 0 0 1-.464.593l-.003.002a2.78 2.78 0 0 1-1.769.479h.009-3.098v-6.603h3.034a2.746 2.746 0 0 1 1.691.444l-.011-.007c.196.151.352.341.453.555.102.215.148.448.135.683.017.363-.107.722-.352 1.009a1.681 1.681 0 0 1-.924.516c.411.068.782.269 1.045.565zm-3.633-.996h1.297c.294.019.587-.059.825-.22a.795.795 0 0 0 .219-.288l.002-.005a.716.716 0 0 0 .057-.355v.003a.733.733 0 0 0-.061-.356l.002.005a.818.818 0 0 0-.215-.294l-.001-.001a1.328 1.328 0 0 0-.854-.223h.005-1.277v1.733zm2.248 2.532a.838.838 0 0 0 .237-.298l.002-.005a.743.743 0 0 0 .069-.316l-.002-.054v.002a.76.76 0 0 0-.072-.378l.002.005a.858.858 0 0 0-.241-.303l-.002-.001a1.416 1.416 0 0 0-.885-.239h.004-1.36v1.817h1.378a1.46 1.46 0 0 0 .87-.229zm7.585 1.304-1.686-2.581h-.635v2.581h-1.452v-6.604h2.749a2.865 2.865 0 0 1 1.92.566l-.008-.005a2.03 2.03 0 0 1 .659 1.47c0 .481-.171.923-.457 1.266l.003-.003a2.28 2.28 0 0 1-1.298.669l-.013.002 1.797 2.639h-1.579zm-2.321-3.482h1.187c.825 0 1.237-.333 1.237-.999a.872.872 0 0 0-.069-.406l.002.006a.999.999 0 0 0-.235-.342l-.001-.001a1.357 1.357 0 0 0-.939-.268h.005-1.201l.014 2.01zm10.257 2.152h-2.893l-.511 1.33h-1.522l2.656-6.53h1.647l2.645 6.53h-1.521l-.5-1.329zm-.387-1-1.057-2.787-1.057 2.787h2.114zm10.32 2.33h-1.44l-3.232-4.491v4.491H46.5v-6.605h1.438l3.232 4.517v-4.517h1.44v6.605zm8.225-1.581a3.007 3.007 0 0 1-1.305 1.165 4.499 4.499 0 0 1-2.033.415h.006-2.564v-6.604h2.565l.121-.002c.69 0 1.346.15 1.935.419l-.029-.012a2.968 2.968 0 0 1 1.303 1.152c.297.538.451 1.131.451 1.733s-.155 1.195-.451 1.732zm-1.649-.158c.391-.41.633-.964.637-1.576v-.001a2.3 2.3 0 0 0-.637-1.575 2.634 2.634 0 0 0-1.813-.561h.008-1.001v4.275h1.001a2.64 2.64 0 0 0 1.811-.566l-.006.004zM43.58 7.218s18.601 6.43 18.207 15.734V38.69s-18.588-6.432-18.201-15.738L43.58 7.218zm34.777 27.788c3.514-2.213 7.577-3.584 11.819-3.987v-4.928c-4.887 1.726-9.035 4.853-11.819 8.915z"/><path  d="M76.247 36.491c2.875-5.301 7.859-9.392 13.929-11.431V10.865s-26.491 9.159-25.931 22.41v22.406s1.181-.41 3.038-1.178c0-.716 0-1.439.085-2.165.547-6.15 3.741-11.851 8.879-15.847z"/><path  d="M73.728 44.814a21.38 21.38 0 0 1 .926-4.588c-3.198 3.451-5.136 7.733-5.538 12.244-.039.426-.061.851-.071 1.291a73.801 73.801 0 0 0 5.522-2.668l-.427.209a21.286 21.286 0 0 1-.412-6.489zm1.054.081a20.428 20.428 0 0 0 .35 6.008l-.023-.132c7.237-3.966 15.371-10.093 15.056-17.497v-.645c-5.171.53-10.009 2.599-13.771 5.891-.83 1.864-1.404 4.027-1.608 6.296l-.006.079z"/></symbol><symbol id="icon-cl4" viewBox="0 0 113 64"><path  d="M25.756 22.51h-.003c-2.558 0-4.631 1.842-4.631 4.115v.003c0 2.273 2.074 4.116 4.631 4.116h.003c2.558 0 4.631-1.843 4.631-4.116v-.002c0-2.274-2.074-4.117-4.631-4.117zm34.185-1.315c-.007-3.157-1.422-6.185-3.934-8.417-2.511-2.233-5.917-3.49-9.469-3.498-3.554.005-6.961 1.263-9.474 3.495-2.513 2.234-3.927 5.26-3.936 8.418v17.411s26.81-2.654 26.813-17.408v-.003zM11.733 44.32c.006 2.197.992 4.302 2.739 5.856 1.747 1.553 4.116 2.429 6.588 2.435 2.471-.006 4.839-.882 6.588-2.435 1.747-1.553 2.733-3.658 2.739-5.854V32.207S11.733 34.056 11.733 44.32zm9.327 2.17c-.483 0-.955-.127-1.357-.366a2.26 2.26 0 0 1-.893-.961l-.006-.013a1.964 1.964 0 0 1-.136-1.266l-.003.013c.094-.421.326-.809.668-1.111a2.539 2.539 0 0 1 1.25-.594 2.716 2.716 0 0 1 1.43.129l-.019-.006c.447.164.828.443 1.097.8s.412.777.412 1.205v.006c0 .301-.068.586-.189.84l.005-.012c-.132.277-.31.512-.527.704l-.002.002a2.46 2.46 0 0 1-.794.473 2.667 2.667 0 0 1-.935.166h-.002v-.009zm18.853-1.195h-1.801v1.859h-.938v-4.551h2.963v.759h-2.026v1.175h1.801v.756zm4.505-.313c0 .448-.079.841-.237 1.178a1.81 1.81 0 0 1-.675.778l-.007.004a1.853 1.853 0 0 1-.978.276h-.035.002c-.378 0-.715-.091-1.01-.272a1.815 1.815 0 0 1-.682-.764l-.005-.011a2.632 2.632 0 0 1-.247-1.123v-.042.002-.224c0-.448.08-.843.24-1.182a1.79 1.79 0 0 1 .685-.784c.279-.173.617-.276.979-.276h.035-.002c.379 0 .715.092 1.009.275.297.181.524.443.685.784.162.339.243.732.243 1.178v.203zm-.949-.207c0-.477-.085-.839-.256-1.088a.834.834 0 0 0-.695-.372l-.039.001h.002l-.036-.001a.831.831 0 0 0-.691.367l-.002.003c-.171.244-.257.602-.259 1.075v.222c0 .464.085.825.256 1.081s.416.384.738.384a.824.824 0 0 0 .723-.365l.002-.003c.169-.247.254-.608.256-1.082v-.222zm3.989 1.184.001-.026a.476.476 0 0 0-.186-.378l-.001-.001c-.125-.096-.35-.196-.675-.3a4.757 4.757 0 0 1-.798-.325l.027.013c-.517-.279-.775-.656-.775-1.129 0-.245.068-.465.206-.656.14-.194.339-.345.597-.453.26-.108.553-.162.875-.162.325 0 .614.059.869.178.254.117.451.282.59.497.142.213.213.459.213.731h-.939c0-.208-.064-.37-.196-.484-.131-.117-.316-.175-.553-.175-.229 0-.407.049-.534.147a.454.454 0 0 0-.191.37v.011-.001c0 .148.075.272.222.372.149.099.37.193.659.281.533.16.922.359 1.166.597.243.237.366.533.366.887 0 .394-.149.704-.448.928-.298.223-.698.335-1.202.335a2.33 2.33 0 0 1-.957-.192 1.547 1.547 0 0 1-.656-.522l-.003-.005a1.34 1.34 0 0 1-.224-.747v-.03.002h.94c0 .501.3.753.9.753.223 0 .397-.045.523-.134a.446.446 0 0 0 .187-.363v-.019.001zm5.004-2.596h-1.393v3.791h-.939v-3.791h-1.373v-.759h3.706v.759zm3.275 1.819h-1.799v1.219h2.112v.753H53v-4.551h3.044v.759h-2.107v1.085h1.801v.734zm2.547.306h-.747v1.666h-.938v-4.551h1.691c.538 0 .953.121 1.244.359.292.24.437.578.437 1.015 0 .31-.067.571-.203.779a1.37 1.37 0 0 1-.6.49l-.009.003.983 1.859v.043h-1.006l-.853-1.664zm-.747-.759h.757c.235 0 .416-.059.546-.177a.645.645 0 0 0 .194-.462l-.001-.037v.002c0-.215-.061-.384-.183-.507s-.307-.185-.56-.185h-.753v1.365zm5.681.822v1.603h-.938v-4.551h1.775c.341 0 .642.063.9.188.26.125.461.303.601.534.139.229.209.491.209.784 0 .446-.154.798-.459 1.056-.305.256-.726.385-1.266.385h-.821zm0-.76h.837c.249 0 .437-.059.565-.175.132-.117.197-.284.197-.5l.001-.034a.748.748 0 0 0-.198-.508l.001.001c-.131-.137-.313-.208-.544-.212h-.86v1.429zm5.931.391H67.35v1.219h2.112v.753h-3.05v-4.551h3.044v.759h-2.107v1.085h1.801v.734zm4.351-1.819h-1.394v3.791h-.938v-3.791h-1.375v-.759H73.5v.759zm3.274 1.819h-1.798v1.219h2.112v.753h-3.051v-4.551h3.044v.759h-2.106v1.085h1.799v.734zm2.548.306h-.747v1.666h-.939v-4.551h1.692c.538 0 .951.121 1.244.359.291.24.437.578.437 1.015 0 .31-.068.571-.203.779a1.368 1.368 0 0 1-.601.49l-.009.003.985 1.859v.043h-1.006l-.853-1.664zm-.747-.759h.756c.235 0 .417-.059.546-.177a.648.648 0 0 0 .195-.463l-.001-.036v.002c0-.215-.061-.384-.185-.507-.121-.123-.307-.185-.559-.185h-.753v1.365zm5.509 1.232.001-.027a.476.476 0 0 0-.187-.379l-.001-.001c-.125-.096-.35-.196-.675-.3a4.757 4.757 0 0 1-.798-.325l.027.013c-.517-.279-.775-.656-.775-1.129a1.1 1.1 0 0 1 .206-.656c.14-.194.339-.345.597-.453.26-.108.553-.162.875-.162.325 0 .614.059.869.178.254.117.451.282.59.497.142.213.213.459.213.731h-.939c0-.208-.064-.37-.196-.484-.131-.117-.316-.175-.553-.175-.229 0-.407.049-.534.147a.453.453 0 0 0-.192.371v.01-.001c0 .148.075.272.223.372.149.099.37.193.659.281.533.16.922.359 1.166.597.243.237.366.533.366.887 0 .394-.149.704-.448.928-.298.223-.699.335-1.202.335a2.33 2.33 0 0 1-.957-.192 1.547 1.547 0 0 1-.656-.522l-.003-.005a1.34 1.34 0 0 1-.224-.747v-.03.002h.94c0 .501.3.753.9.753.223 0 .397-.045.522-.134a.447.447 0 0 0 .188-.364v-.018.001z"/></symbol><symbol id="icon-cl3" viewBox="0 0 113 64"><path  d="M38.833 52.374c.017 0 .034.004.049.011a.13.13 0 0 1 .042.026l.233.222c-.181.18-.404.324-.655.422a2.509 2.509 0 0 1-.868.152l-.063-.001h.003a2.461 2.461 0 0 1-.871-.142 1.926 1.926 0 0 1-.659-.4l.001.001a1.796 1.796 0 0 1-.419-.605l-.004-.012a2.011 2.011 0 0 1-.149-.769v-.023.001-.041c0-.543.236-1.031.61-1.368l.002-.002c.198-.174.436-.31.698-.402.287-.096.592-.144.899-.141l.055-.001c.279 0 .547.047.796.134l-.017-.005c.23.087.442.208.626.357l-.195.237a.191.191 0 0 1-.048.042l-.001.001a.129.129 0 0 1-.068.019l-.011-.001h.001a.176.176 0 0 1-.086-.025l.001.001-.103-.064-.146-.081a1.615 1.615 0 0 0-.449-.14l-.009-.001a2.006 2.006 0 0 0-.321-.026h-.027.001-.021c-.224 0-.438.039-.637.111l.013-.004a1.49 1.49 0 0 0-.508.3l.001-.001a1.382 1.382 0 0 0-.329.475 1.571 1.571 0 0 0-.119.604v.023-.001.026c0 .22.044.43.123.622l-.004-.011c.071.175.181.335.323.473.133.128.299.229.483.293.19.068.393.102.598.101.118.001.238-.005.355-.02.296-.031.56-.149.77-.328l-.002.002a.19.19 0 0 1 .11-.041zm6.718-1.116v.024c0 .276-.058.538-.162.775l.005-.012a1.706 1.706 0 0 1-.436.609l-.002.002a2.01 2.01 0 0 1-.674.396l-.014.004a2.845 2.845 0 0 1-1.788-.005l.02.006a2.053 2.053 0 0 1-.685-.404l.002.002a1.8 1.8 0 0 1-.438-.605l-.005-.011a2.049 2.049 0 0 1 .005-1.587l-.005.013c.099-.23.25-.441.443-.619.194-.17.427-.301.683-.387a2.792 2.792 0 0 1 1.788.006l-.02-.006c.258.091.492.227.686.401.192.176.341.384.439.609.108.254.161.522.157.791zm-.61 0v-.033c0-.216-.041-.422-.115-.611l.004.011a1.305 1.305 0 0 0-.793-.767l-.009-.003a2.039 2.039 0 0 0-1.3.004l.014-.004c-.191.068-.355.17-.492.299l.001-.001a1.28 1.28 0 0 0-.312.464l-.003.009a1.857 1.857 0 0 0 .004 1.275l-.004-.013c.141.365.433.644.797.765l.009.003c.414.135.87.135 1.285 0 .187-.065.354-.166.491-.295.14-.138.245-.299.311-.473a1.67 1.67 0 0 0 .111-.631zm5.193.662.062.141a2.67 2.67 0 0 1 .145-.285l-.003.005 1.486-2.348c.03-.041.055-.066.085-.074a.406.406 0 0 1 .123-.012h-.001.439v3.819h-.521V50.24l-.002-.066.002-.069v.003l-1.497 2.381a.222.222 0 0 1-.086.086l-.001.001a.262.262 0 0 1-.126.032H50.149a.254.254 0 0 1-.126-.033l.001.001a.22.22 0 0 1-.086-.085l-.001-.001-1.539-2.396v3.065h-.502v-3.81h.438l.021-.001c.036 0 .072.005.105.014l-.003-.001a.167.167 0 0 1 .081.074l1.518 2.35a.825.825 0 0 1 .074.131l.002.005zm5.593-.19v1.429h-.58v-3.812h1.297c.245-.004.489.025.724.083.188.047.363.128.512.238a.992.992 0 0 1 .288.367l.002.006c.069.156.102.322.099.489v.024c0 .344-.164.65-.419.844l-.003.002a1.482 1.482 0 0 1-.515.252 2.417 2.417 0 0 1-.655.089l-.048-.001-.702-.011zm0-.409h.704c.153.002.305-.018.451-.058a.995.995 0 0 0 .328-.166l-.002.002a.732.732 0 0 0 .267-.565v-.009.001a.639.639 0 0 0-.06-.314l.002.004a.73.73 0 0 0-.201-.259l-.001-.001a1.24 1.24 0 0 0-.787-.204h.004-.704v1.571zm7.818 1.844h-.468a.215.215 0 0 1-.12-.036l.001.001a.243.243 0 0 1-.076-.087l-.001-.001-.395-.922h-1.987l-.41.922a.22.22 0 0 1-.197.124h-.467l1.745-3.819h.605l1.769 3.819zm-2.88-1.418h1.641l-.691-1.554a2.654 2.654 0 0 1-.131-.358l-.067.199a1.48 1.48 0 0 1-.064.162l-.686 1.551zm5.393-2.382a.238.238 0 0 1 .086.067l2.545 2.879v-2.964h.521v3.819h-.297a.292.292 0 0 1-.115-.024l.002.001a.316.316 0 0 1-.094-.07l-2.541-2.876.002.066-.002.069v-.003 2.837h-.521v-3.819h.308c.035 0 .071.006.105.018zm7.439 2.282v1.516h-.581v-1.515l-1.609-2.3h.534c.042 0 .08.012.113.033l-.001-.001a.355.355 0 0 1 .079.086l1.006 1.484c.041.064.076.122.105.177.03.055.053.109.074.161l.075-.164c.029-.06.062-.117.099-.174l.992-1.493a.41.41 0 0 1 .074-.081l.001-.001a.198.198 0 0 1 .115-.038h.536l-1.611 2.309zM49.846 42.94c.253.028.509.05.768.07 3.924-1.525 7.244-4.021 9.545-7.177 2.3-3.155 3.478-6.83 3.389-10.564l-4.324-3.757c.879 3.975.467 8.085-1.188 11.87-1.657 3.785-4.491 7.093-8.189 9.557z"/><path  d="m48.303 42.765.116.021c3.951-2.457 6.962-5.885 8.646-9.843s1.963-8.266.8-12.363l-6.16-5.351c2.491 4.399 3.494 9.323 2.891 14.197-.602 4.875-2.784 9.5-6.293 13.339zm20.89-13.084c-1.046 4.103-3.588 7.804-7.247 10.553a22.675 22.675 0 0 1-3.315 2.087l-.129.061c2.98-.761 5.718-2.106 8.005-3.932s4.061-4.084 5.184-6.599l-2.498-2.169z"/><path  d="m68.212 29.077-3.556-3.09c-.068 3.523-1.221 6.966-3.339 9.971-2.118 3.006-5.124 5.463-8.704 7.118h.017c.798 0 1.595-.043 2.387-.124 3.346-1.187 6.303-3.075 8.605-5.497 2.303-2.421 3.879-5.299 4.59-8.379zM48.817 12.971 44.574 9.28c-3.793 1.274-7.055 3.513-9.36 6.423-2.304 2.912-3.543 6.358-3.555 9.892.014 3.904 1.526 7.693 4.299 10.766 2.77 3.072 6.642 5.255 11.002 6.202 3.891-4.119 6.171-9.21 6.505-14.531.334-5.323-1.294-10.597-4.646-15.061zm29.199 15.538c-.015-4.631-2.14-9.07-5.909-12.346-3.77-3.275-8.879-5.121-14.21-5.135h-.042c-2.562 0-5.024.426-7.32 1.212l.159-.047 25.979 22.573c.847-1.839 1.342-3.99 1.344-6.256v-.001z"/></symbol><symbol id="icon-cl2" viewBox="0 0 113 64"><path  d="M53.455 6.331h-.146c-.224-.014-.448-.019-.672-.025h-.485c-.423 0-.855.011-1.284.032l-.049-.002-.051.002h.002a30.078 30.078 0 0 0-11.398 2.94l.18-.079-.461.222v23.618l1.079-.367a41.013 41.013 0 0 1 3.001-.89c2.58-.69 5.55-1.106 8.61-1.146h.025v3.103c-.386.002-.761.013-1.136.032h-.09c-2.425.136-4.696.5-6.883 1.073l.24-.053c-3.006.764-5.64 1.821-8.088 3.173l.174-.088V7.586c2.391-1.421 5.156-2.579 8.084-3.329l.22-.048c2.345-.631 5.04-.998 7.819-1.009h.462a31.78 31.78 0 0 1 1.577.076c1.315.093 2.62.301 3.899.622v3.054a22.871 22.871 0 0 0-3.699-.565l-.079-.005-.078-.006c-.263-.022-.527-.045-.772-.045zm5.375 3.121c.677.052 1.379.077 2.089.077a33.625 33.625 0 0 0 8.461-1.108l-.234.053c3.005-.767 5.637-1.824 8.085-3.174l-.175.088v29.749c-2.391 1.42-5.156 2.578-8.085 3.329l-.22.048c-2.345.629-5.04.995-7.819 1.007h-.007l-.192.001c-2.039 0-4.019-.255-5.909-.736l.165.036V8.879c.459.107.931.204 1.411.285.788.133 1.619.23 2.429.29zm15.14.231-1.079.363a46.66 46.66 0 0 1-3.001.898c-2.688.719-5.776 1.138-8.959 1.15h-.007a30.12 30.12 0 0 1-1.978-.06l-.861-.057v24.295l.739.064c.685.061 1.392.091 2.105.091a28.748 28.748 0 0 0 7.262-.959l-.2.045a29.464 29.464 0 0 0 5.695-2.061l-.176.077.461-.222V9.682zM38.119 48.226c-.29-.3-.695-.486-1.145-.486l-.059.001h.003-.024c-.241 0-.471.048-.681.135l.012-.004a1.57 1.57 0 0 0-.884.888l-.004.011a1.747 1.747 0 0 0-.124.67v4.047c-.011.285.045.569.159.83.096.208.234.393.405.543.161.135.351.235.555.288.197.054.401.083.605.083a1.52 1.52 0 0 0 .653-.141 1.712 1.712 0 0 0 1.024-1.563v-.452h-1.059v.386a.945.945 0 0 1-.064.342l.002-.006a.65.65 0 0 1-.153.228.742.742 0 0 1-.442.155h-.001a.537.537 0 0 1-.495-.216l-.001-.002a.949.949 0 0 1-.142-.501l.001-.043v.002-3.774a1.295 1.295 0 0 1 .13-.605.542.542 0 0 1 .52-.244h-.003.02a.56.56 0 0 1 .451.227l.001.002a.857.857 0 0 1 .175.52v.024-.001.35h1.047v-.431c0-.248-.047-.486-.134-.703l.005.013a1.662 1.662 0 0 0-.355-.57l.001.001zm6.285-.045a1.872 1.872 0 0 0-1.203-.446H43.2c-.215 0-.43.039-.631.114a1.675 1.675 0 0 0-.965.887l-.004.011a1.88 1.88 0 0 0-.155.784v3.881c-.007.273.046.544.155.795.096.209.235.395.41.543.162.149.352.267.559.341a1.823 1.823 0 0 0 1.836-.343l-.002.002c.169-.151.304-.336.399-.543.109-.25.161-.522.155-.795v-3.916c0-.271-.057-.528-.16-.761l.005.012a1.768 1.768 0 0 0-.398-.567l-.001-.001zm-.494 5.231a.697.697 0 0 1-.209.562.776.776 0 0 1-.997-.001l.001.001a.693.693 0 0 1-.21-.565v.003-3.882a.694.694 0 0 1 .209-.561.776.776 0 0 1 .997.001l-.001-.001a.695.695 0 0 1 .21.564v-.003 3.883zm8.748 1.735v-7.349h-1.017l-1.337 3.89h-.018l-1.347-3.889h-1.006v7.347h1.05v-4.469h.019l1.027 3.159h.524l1.036-3.159h.019v4.469h1.05zm5.964-6.833a1.46 1.46 0 0 0-.593-.402 2.266 2.266 0 0 0-.721-.114h-1.599v7.349h1.047v-2.87h.539a1.91 1.91 0 0 0 .945-.201c.24-.135.435-.326.571-.555l.004-.007a1.75 1.75 0 0 0 .24-.64c.036-.231.057-.498.057-.769v-.069.004a4.215 4.215 0 0 0-.102-1.05 1.578 1.578 0 0 0-.386-.676zm-.54 2.24a.932.932 0 0 1-.099.388l.002-.005a.598.598 0 0 1-.266.256l-.004.002c-.129.059-.28.094-.44.094l-.057-.002h.003-.478v-2.498h.54l.05-.001a.99.99 0 0 1 .428.096l-.006-.003a.6.6 0 0 1 .244.267l.002.004c.058.129.089.269.092.41v.489c0 .171.011.348 0 .505h-.011zm5.5-2.757h-.859l-1.619 7.349h1.047l.307-1.579h1.428l.307 1.579h1.046l-1.659-7.349zm-.967 4.769.515-2.663h.019l.512 2.663h-1.046zm7.732-.342h-.019l-1.581-4.427H67.74v7.349h1.046v-4.419h.021l1.6 4.418h.986v-7.347h-1.046v4.427zm6.398-4.427-.843 2.923h-.021l-.843-2.923h-1.107l1.438 4.243v3.105h1.047V52.04l1.438-4.242h-1.109zM35.2 57.221h.505v1.415h.342v-1.417h.501v-.29H35.2v.291zm4.242-.291-.661 1.707h.364l.141-.388h.681l.145.388h.373l-.678-1.707h-.364zm-.053 1.032.231-.633.231.633h-.464zm4.246.045h.395v.22a.649.649 0 0 1-.405.144l-.024.001a.432.432 0 0 1-.338-.163l-.001-.001a.715.715 0 0 1-.127-.407l.001-.04v.002c0-.38.164-.57.491-.57a.36.36 0 0 1 .386.269l.001.002.337-.066c-.073-.333-.313-.501-.723-.501h-.023a.855.855 0 0 0-.574.221l.001-.001a.83.83 0 0 0-.245.658v-.003l-.001.04c0 .229.083.439.221.602l-.001-.001a.825.825 0 0 0 .65.25h-.002.028c.269 0 .513-.104.696-.273l-.001.001v-.672h-.739v.288zm4.283-1.077h-.346v1.707h1.195v-.29h-.849V56.93zm3.621 0h-.346v1.707h.346V56.93zm3.539 1.139-.699-1.139h-.334v1.707h.32v-1.115l.686 1.115h.343V56.93h-.317v1.14zm3.201-.184h.85v-.29h-.85v-.373h.914v-.291h-1.26v1.707h1.295v-.29h-.949v-.462zm7.76-.282h-.672v-.672h-.341v1.706h.341v-.747h.672v.747h.343V56.93h-.343v.673zm3.22.282h.853v-.29h-.853v-.373h.917v-.291h-1.259v1.707h1.293v-.29h-.949v-.462zm4.366.001c.298-.047.448-.204.448-.475a.409.409 0 0 0-.166-.379l-.001-.001a.947.947 0 0 0-.503-.101h.003-.723v1.706h.343v-.714h.067l.028-.001a.46.46 0 0 1 .189.04l-.003-.001c.05.031.092.074.122.125l.372.542h.41l-.208-.333a1.197 1.197 0 0 0-.373-.407l-.004-.003zm-.346-.237h-.253v-.428h.27a.905.905 0 0 1 .354.042l-.006-.002a.224.224 0 0 1-.015.346h-.001a.952.952 0 0 1-.352.041h.003zm3.638.236h.849v-.29h-.849v-.373h.917v-.291h-1.263v1.707h1.295v-.29h-.949v-.462z"/></symbol><symbol id="icon-cl1" viewBox="0 0 113 64"><path  d="m40.533 7.467 7.475 7.076-13.875-.009v34.334H70.4V35.741l7.467 7.069V7.467H40.534zM70.071 34.91 48.876 14.846h21.195V34.91zm-6.58 8.935H39.872V20.756h1.669v21.526h21.95v1.563zm-18.04 9.595-.873 1.797-.873-1.797h-.732l1.274 2.396v1.396h.661v-1.396l1.27-2.396h-.729zm1.096 3.792.307-.883h1.469l.309.883h.688l-1.435-3.792h-.592l-1.431 3.792h.685zm1.041-2.987.549 1.572h-1.099l.549-1.573zm3.474 1.482a.85.85 0 0 0-.143.475v.006c0 .32.112.579.336.779.225.198.526.298.9.298.375 0 .699-.102.97-.305l.213.253h.734l-.557-.659c.219-.299.327-.682.327-1.149h-.549c0 .256-.053.487-.159.695l-.732-.864.258-.188c.157-.106.288-.238.39-.391l.003-.005a.83.83 0 0 0 .12-.431v-.022a.777.777 0 0 0-.265-.586l-.001-.001a.95.95 0 0 0-.64-.246l-.039.001h.002c-.305 0-.548.087-.729.26s-.271.406-.271.704c0 .122.029.246.085.378.06.13.163.288.309.474-.281.202-.469.375-.564.523zm1.711.838a.952.952 0 0 1-.598.213l-.031.001a.624.624 0 0 1-.423-.165.567.567 0 0 1-.17-.405v-.022.001c0-.203.105-.384.313-.542l.081-.058.828.977zm-.679-1.68c-.179-.221-.269-.403-.269-.549 0-.127.037-.231.11-.315a.368.368 0 0 1 .279-.126h.016-.001.014c.105 0 .2.041.27.107.075.07.112.155.112.253v.014a.468.468 0 0 1-.161.354l-.001.001-.081.064-.289.198zm6.172 2.06c.26-.227.41-.544.448-.947h-.656c-.035.271-.117.464-.247.58-.13.117-.325.175-.583.175-.283 0-.498-.108-.645-.323-.146-.215-.22-.528-.22-.939v-.335c.004-.405.082-.71.235-.919.155-.21.375-.315.661-.315.246 0 .433.061.56.181.128.121.208.317.24.589h.656c-.043-.415-.19-.736-.445-.963-.256-.227-.592-.341-1.011-.341-.31 0-.585.075-.822.222a1.446 1.446 0 0 0-.54.62l-.004.009a2.182 2.182 0 0 0-.19.949v-.002.354a2.2 2.2 0 0 0 .195.919c.126.263.303.467.531.611.231.143.498.213.8.213.432 0 .779-.112 1.039-.338zm3.872-.531c.128-.282.193-.608.193-.979v-.251c0-.337-.073-.657-.204-.946l.006.014a1.445 1.445 0 0 0-.549-.636l-.006-.004c-.239-.149-.512-.224-.821-.224s-.582.075-.822.226a1.481 1.481 0 0 0-.555.649 2.274 2.274 0 0 0-.195.981v-.002.213c.002.363.067.683.197.96.132.278.318.493.558.644.241.149.515.224.822.224.311 0 .586-.075.823-.224.239-.151.423-.367.551-.646zm-.705-2.144c.16.224.239.547.239.967v.197c0 .427-.079.752-.237.974-.156.223-.38.334-.672.334l-.027.001a.786.786 0 0 1-.647-.339l-.002-.003c-.162-.227-.242-.549-.242-.966v-.219c.003-.407.085-.723.244-.945a.783.783 0 0 1 .671-.336h-.001c.292 0 .517.112.675.336z"/></symbol><symbol id="icon-group" viewBox="0 0 60 64"><path fill="#212121" style="fill: var(--color3, #212121)" d="M59.718 44.196l-16.887-17.010 1.874-9.232c0.45 0.181 0.971 0.288 1.516 0.292h0.015c0.015 0 0.033 0 0.051 0 2.385 0 4.318-1.933 4.318-4.318s-1.933-4.318-4.318-4.318c-2.385 0-4.318 1.933-4.318 4.318 0 0.519 0.092 1.016 0.259 1.477l-0.010-0.030-9.92 1.211-16.181-16.266c-0.192-0.196-0.458-0.318-0.753-0.32h-0c-0.28 0.002-0.549 0.113-0.747 0.311l-3.024 3.008c-0.193 0.193-0.312 0.46-0.312 0.754s0.119 0.561 0.312 0.754v0l1.627 1.65c-2.286 4.125-3.631 9.044-3.631 14.278 0 8.211 3.312 15.649 8.672 21.050l-0.002-0.002c0.086 0.082 0.185 0.147 0.293 0.195-0.064 0.328-0.102 0.706-0.104 1.092v12.376h-12.8c-2.945 0.003-5.331 2.389-5.335 5.333v2.133c0 0.59 0.478 1.067 1.068 1.067h49.067c0.589 0 1.066-0.477 1.066-1.067v-2.133c-0.004-2.944-2.389-5.329-5.333-5.333h-12.8v-5.484c2.005 0.421 4.048 0.635 6.097 0.64 5.16-0.006 10.009-1.326 14.234-3.644l-0.154 0.078 1.637 1.646c0.197 0.202 0.469 0.317 0.752 0.32 0.28-0.002 0.549-0.113 0.747-0.311l3.024-3.008c0.193-0.193 0.312-0.46 0.312-0.754s-0.119-0.561-0.312-0.754v0zM44.731 12.466c0.386-0.384 0.917-0.621 1.504-0.621 1.178 0 2.133 0.955 2.133 2.133s-0.955 2.133-2.133 2.133c-0 0-0 0-0 0h-0.007c-1.173-0.006-2.122-0.959-2.122-2.133 0-0.591 0.24-1.126 0.629-1.512l0-0h-0.004zM42.22 19.474l-1.197 5.892-2.351-2.365 3.547-3.526zM41.008 17.67l-3.84 3.818-2.971-2.987 6.811-0.831zM46.18 57.6c1.767 0 3.2 1.433 3.2 3.2v0 1.067h-46.933v-1.067c0-1.767 1.433-3.2 3.2-3.2v0h40.533zM31.247 53.333v2.134h-10.667v-2.134h10.667zM20.58 51.2v-8.107c0-2.587 2.393-4.693 5.333-4.693s5.334 2.106 5.334 4.693v8.107h-10.667zM33.38 47.808v-4.715c0-3.764-3.349-6.826-7.467-6.826-0.035-0.001-0.076-0.001-0.117-0.001-2.705 0-5.080 1.413-6.427 3.542l-0.018 0.031c-4.72-4.963-7.623-11.693-7.623-19.1 0-4.628 1.133-8.992 3.138-12.828l-0.073 0.153 37.204 37.417c-3.645 1.894-7.959 3.004-12.532 3.004-2.157 0-4.257-0.247-6.272-0.715l0.186 0.036zM55.958 46.44l-42.114-42.362 1.509-1.504 15.87 15.96c0.007 0 0.012 0.014 0.019 0.019l26.229 26.383-1.513 1.504z"></path><path fill="#2196f3" style="fill: var(--color4, #2196f3)" d="M25.923 40.533h-0.009c-0.002 0-0.003 0-0.005 0-1.767 0-3.2 1.433-3.2 3.2 0 1.766 1.43 3.197 3.195 3.2h0.009c0.001 0 0.003 0 0.005 0 1.767 0 3.2-1.433 3.2-3.2 0-1.766-1.43-3.197-3.195-3.2h-0zM26.669 44.49c-0.193 0.192-0.459 0.311-0.753 0.311-0.589 0-1.067-0.478-1.067-1.067 0-0.588 0.476-1.065 1.064-1.067h0c0.587 0.003 1.061 0.479 1.061 1.066 0 0.296-0.12 0.563-0.314 0.756l-0 0h0.009z"></path></symbol><symbol id="icon-clock" viewBox="0 0 64 64"><path fill="#212121" style="fill: var(--color3, #212121)" d="M62.593 30.602c-0.003-16.904-13.71-30.606-30.616-30.602s-30.606 13.711-30.602 30.616c0.004 13.575 8.844 25.085 21.082 29.090l0.216 0.061c0.122 0.038 0.247 0.058 0.375 0.058 0.24 0 0.476-0.065 0.684-0.187 0.271-0.16 0.472-0.414 0.567-0.713l7.729-24.5c2.107-0.007 3.813-1.717 3.813-3.825 0-2.113-1.713-3.825-3.825-3.825-0.606 0-1.18 0.141-1.689 0.392l0.022-0.010-10.212-10.213c-0.229-0.221-0.541-0.357-0.885-0.357-0.704 0-1.275 0.571-1.275 1.275 0 0.344 0.136 0.656 0.358 0.886l-0-0 10.206 10.218c-0.241 0.482-0.383 1.050-0.383 1.651 0 1.203 0.566 2.274 1.447 2.961l0.008 0.006-7.365 23.346c-14.555-5.362-22.009-21.509-16.647-36.064s21.508-22.009 36.064-16.646c14.555 5.361 22.009 21.508 16.646 36.063-2.69 7.163-8.006 12.812-14.748 15.876l-0.176 0.072-0.795-3.749c-0.126-0.582-0.636-1.012-1.247-1.012-0.327 0-0.626 0.123-0.851 0.326l0.001-0.001-7.674 6.852c-0.264 0.235-0.429 0.575-0.429 0.953 0 0.567 0.37 1.047 0.881 1.213l0.009 0.002 9.797 3.127c0.117 0.039 0.251 0.062 0.391 0.062 0.704 0 1.275-0.571 1.275-1.275 0-0.095-0.010-0.187-0.030-0.276l0.002 0.008-0.782-3.677c11.055-4.749 18.657-15.543 18.657-28.113 0-0.023 0-0.046-0-0.069v0.004zM31.984 29.328c0.704 0 1.275 0.571 1.275 1.275s-0.571 1.275-1.275 1.275v0c-0.704 0-1.275-0.571-1.275-1.275s0.571-1.275 1.275-1.275v0zM36.185 59.056l4.368-3.897 1.206 5.68-5.574-1.784z"></path><path fill="#2196f3" style="fill: var(--color4, #2196f3)" d="M30.709 6.37v2.551c0 0.704 0.571 1.275 1.275 1.275s1.275-0.571 1.275-1.275v0-2.551c0-0.704-0.571-1.275-1.275-1.275s-1.275 0.571-1.275 1.275v0zM7.752 29.328c-0.704 0-1.275 0.571-1.275 1.275s0.571 1.275 1.275 1.275h2.551c0.704 0 1.275-0.571 1.275-1.275s-0.571-1.275-1.275-1.275h-2.551zM56.216 31.878c0.704 0 1.275-0.571 1.275-1.275s-0.571-1.275-1.275-1.275h-2.551c-0.704 0-1.275 0.571-1.275 1.275s0.571 1.275 1.275 1.275h2.551z"></path></symbol><symbol id="icon-diagram" viewBox="0 0 64 64"><path fill="#2196f3" style="fill: var(--color4, #2196f3)" d="M29.851 29.929h2.132v9.595h-2.132v-9.595zM38.38 34.194h2.132v5.33h-2.132v-5.33zM21.322 37.392h2.132v2.132h-2.132v-2.132zM14.926 36.325h2.132v3.198h-2.132v-3.198z"></path><path fill="#212121" style="fill: var(--color3, #212121)" d="M3.198 56.581h51.173c0 0 0.001 0 0.001 0 1.766 0 3.198-1.432 3.198-3.198v0-4.264c0-1.766-1.432-3.198-3.198-3.198v0h-1.066v-26.587l6.055-5.736c0.415 0.209 0.904 0.331 1.422 0.331 1.776 0 3.216-1.44 3.216-3.216s-1.44-3.216-3.216-3.216c-1.776 0-3.216 1.44-3.216 3.216 0 0.494 0.111 0.962 0.31 1.38l-0.008-0.020-4.562 4.325v-2.459c0-1.766-1.432-3.198-3.198-3.198v0h-42.645c-1.766 0-3.198 1.432-3.198 3.198v0 31.984h-1.066c-1.766 0-3.198 1.432-3.198 3.198v0 4.264c0 1.766 1.432 3.198 3.198 3.198v0zM60.768 9.673c0.589 0 1.066 0.477 1.066 1.066s-0.477 1.066-1.066 1.066v0c-0.589 0-1.066-0.477-1.066-1.066s0.477-1.066 1.066-1.066v0zM6.396 13.937c0-0.589 0.477-1.066 1.066-1.066h42.645c0.589 0 1.066 0.477 1.066 1.066v4.477l-2.132 2.026v-4.37c0-0.59-0.478-1.067-1.067-1.067h-38.379c-0.589 0-1.067 0.477-1.067 1.066v26.653c0 0.589 0.478 1.066 1.067 1.066h38.379c0.59 0 1.067-0.477 1.067-1.066v-19.349l2.132-2.021v24.567h-44.777v-31.982zM15.992 27.797c-0.003 0-0.006 0-0.009 0-1.766 0-3.198 1.432-3.198 3.198s1.432 3.198 3.198 3.198c0.865 0 1.649-0.343 2.225-0.9l-0.001 0.001 3.706 1.86c0.431 0.215 0.953 0.114 1.273-0.245l7.878-8.863 7.744 5.803c0.416 0.311 0.996 0.278 1.372-0.079l6.73-6.375v16.262h-36.247v-24.521h36.247v5.321l-7.543 7.143-7.808-5.854c-0.176-0.133-0.399-0.214-0.641-0.214-0.316 0-0.6 0.138-0.796 0.356l-0.001 0.001-7.985 8.986-2.985-1.493c0.021-0.128 0.035-0.257 0.040-0.387 0-1.766-1.432-3.198-3.198-3.198v0zM17.058 30.995c0 0.589-0.477 1.066-1.066 1.066s-1.066-0.477-1.066-1.066v0c0-0.589 0.477-1.066 1.066-1.066s1.066 0.477 1.066 1.066v0zM23.454 48.053h10.661v1.066c0 0.589-0.476 1.066-1.065 1.066h-8.529c-0.589 0-1.066-0.477-1.066-1.066v0-1.066zM2.133 49.119c0-0.589 0.476-1.066 1.065-1.066h18.124v1.066c0 1.766 1.432 3.198 3.198 3.198v0h8.529c1.766 0 3.198-1.432 3.198-3.198v0-1.066h18.124c0.589 0 1.066 0.477 1.066 1.066v4.264c0 0.589-0.477 1.066-1.066 1.066h-51.173c-0 0-0.001 0-0.001 0-0.589 0-1.066-0.477-1.066-1.066 0 0 0 0 0 0v0-4.264z"></path></symbol><symbol id="icon-astronaut" viewBox="0 0 64 64"><path fill="#2196f3" style="fill: var(--color4, #2196f3)" d="M63.948 9.048c-0.127-0.382-0.455-0.664-0.854-0.724l-0.006-0.001-3.822-0.556-1.71-3.462c-0.358-0.73-1.554-0.73-1.912 0l-1.71 3.462-3.822 0.556c-0.52 0.077-0.914 0.521-0.914 1.056 0 0.299 0.123 0.569 0.321 0.763l2.767 2.696-0.653 3.805c-0.069 0.4 0.096 0.805 0.423 1.044 0.332 0.24 0.765 0.271 1.125 0.080l3.418-1.797 3.418 1.797c0.143 0.076 0.313 0.121 0.494 0.121 0.59 0 1.069-0.479 1.069-1.069 0-0.062-0.005-0.124-0.016-0.183l0.001 0.006-0.653-3.805 2.766-2.696c0.199-0.194 0.322-0.465 0.322-0.765 0-0.118-0.019-0.231-0.054-0.337l0.002 0.008zM59.023 11.703c-0.251 0.244-0.366 0.599-0.306 0.944l0.381 2.228-2-1.051c-0.144-0.078-0.315-0.123-0.497-0.123s-0.353 0.046-0.503 0.126l0.006-0.003-2 1.051 0.381-2.228c0.010-0.054 0.015-0.117 0.015-0.181 0-0.299-0.123-0.57-0.321-0.764l-1.62-1.579 2.238-0.325c0.347-0.050 0.647-0.269 0.803-0.584l1.001-2.026 1 2.026c0.155 0.315 0.455 0.534 0.804 0.584l2.237 0.325-1.618 1.579zM52.267 41.044h-2.134v2.134h2.134v-2.134zM52.267 45.312h-2.134v2.132h2.134v-2.132zM54.4 43.178h-2.133v2.133h2.133v-2.133z"></path><path fill="#2196f3" style="fill: var(--color4, #2196f3)" d="M50.134 43.178h-2.134v2.133h2.134v-2.133zM44.8 52.778h-2.133v2.133h2.133v-2.133zM44.8 57.045h-2.133v2.133h2.133v-2.133zM46.934 54.912h-2.134v2.133h2.134v-2.134zM42.667 54.912h-2.134v2.133h2.134v-2.134zM32 48.512h-2.133v2.133h2.133v-2.134zM32 52.778h-2.133v2.133h2.133v-2.133zM34.133 50.644h-2.133v2.134h2.133v-2.134zM29.866 50.644h-2.133v2.134h2.134v-2.134zM11.733 12.244h-2.133v2.133h2.133v-2.133zM11.733 16.511h-2.133v2.133h2.133v-2.132zM13.866 14.377h-2.133v2.134h2.133v-2.134zM9.6 14.377h-2.134v2.134h2.134v-2.134z"></path><path fill="#212121" style="fill: var(--color3, #212121)" d="M49.429 28.319c-0.56-0.753-1.397-1.272-2.358-1.407l-0.019-0.002c-0.153-0.023-0.329-0.037-0.508-0.037-0.821 0-1.577 0.279-2.179 0.747l0.008-0.006-2.506 1.919-3.795 2.834-2.715-1.082c4.842-2.172 8.227-7.016 8.227-12.64 0-7.646-6.245-13.867-13.922-13.867s-13.923 6.221-13.923 13.867c0 2.771 0.829 5.349 2.24 7.517l-5.537-0.048c-0.017 0-0.031 0.009-0.047 0.009-0.113 0.006-0.219 0.028-0.318 0.065l0.007-0.002c-0.026 0.009-0.052 0.015-0.077 0.026-0.013 0.006-0.026 0.006-0.038 0.013l-6.466 3.192c-0.001 0-0.003 0-0.003 0.002l-3.786 1.82c-0.049 0.022-0.090 0.046-0.129 0.072l0.003-0.002c-0.964 0.647-1.589 1.733-1.589 2.965 0 0.594 0.145 1.154 0.403 1.647l-0.009-0.020c0.439 0.847 1.185 1.484 2.087 1.77l0.025 0.007c0.321 0.105 0.691 0.166 1.075 0.166 0.616 0 1.196-0.157 1.701-0.432l-0.019 0.009 2.776-1.476 4.528-2.339 2.714-0.016-10.884 10.831c0 0.002-0.002 0.002-0.003 0.003l-2.678 2.666c-0.605 0.598-0.98 1.428-0.98 2.346 0 0.004 0 0.007 0 0.011v-0.001c0 0.889 0.347 1.726 0.98 2.357 0.603 0.6 1.434 0.971 2.352 0.971 0.002 0 0.005 0 0.007 0h-0c0.856 0 1.709-0.325 2.361-0.971l2.629-2.618 3.482-2.599 1.801 1.794-6.203 6.177c-0.606 0.598-0.981 1.429-0.981 2.347 0 0.003 0 0.006 0 0.009v-0c0 0.89 0.347 1.727 0.981 2.358 0.603 0.599 1.434 0.97 2.352 0.97 0.002 0 0.005 0 0.007 0h-0c0.855 0 1.71-0.324 2.361-0.97l8.976-8.944c0.014-0.013 0.032-0.017 0.045-0.031l10.331-11.316 6.942 0.987c0.050 0.007 0.101 0.011 0.15 0.011 0.13 0 0.254-0.031 0.375-0.077 0.036-0.013 0.066-0.030 0.1-0.047 0.038-0.019 0.079-0.030 0.115-0.055l6.426-4.266c0.024-0.016 0.037-0.042 0.059-0.059 0.026-0.020 0.058-0.028 0.081-0.051l2.542-2.382c0.695-0.651 1.128-1.575 1.128-2.599 0-0.8-0.264-1.539-0.71-2.133l0.007 0.009zM4.261 35.54c-0.196 0.108-0.43 0.172-0.679 0.172-0.156 0-0.307-0.025-0.447-0.072l0.010 0.003c-0.588-0.186-1.007-0.728-1.007-1.367 0-0.471 0.227-0.889 0.578-1.149l0.004-0.003 2.628-1.264 0.633 1.849 0.265 0.777-1.984 1.054zM11.255 31.885l-3.097 1.6-0.51-1.493-0.368-1.073 4.054-2.001-0.080 2.968zM41.454 18.644c0 1.837-0.439 3.569-1.198 5.119l-8.363-3.799c-0.087-1.15-0.685-2.145-1.565-2.767l-0.012-0.008 2.927-9.722c4.756 1.513 8.21 5.949 8.21 11.176zM17.876 18.644c0-6.47 5.288-11.734 11.789-11.734 0.506 0 1 0.043 1.49 0.105l-2.864 9.506c-0.038 0-0.074-0.012-0.114-0.012-0.001 0-0.001 0-0.002 0-2.064 0-3.738 1.671-3.743 3.733v0c0.006 2.063 1.679 3.733 3.743 3.733 0.001 0 0.001 0 0.002 0h-0c1.39 0 2.589-0.766 3.237-1.889l7.726 3.509c-2.15 2.894-5.59 4.78-9.474 4.78-6.501 0-11.789-5.264-11.789-11.733zM29.789 20.244c0 0.882-0.724 1.6-1.613 1.6-0.001 0-0.002 0-0.003 0-0.885 0-1.604-0.715-1.608-1.6v-0c0-0.882 0.722-1.6 1.611-1.6s1.612 0.718 1.612 1.6zM4.929 50.292c-0.22 0.218-0.522 0.352-0.856 0.352s-0.635-0.134-0.854-0.35l0 0c-0.217-0.215-0.352-0.514-0.352-0.844s0.135-0.629 0.352-0.844l0-0 1.925-1.917 1.704 1.696-1.917 1.909zM11.356 57.759c-0.22 0.218-0.522 0.352-0.856 0.352s-0.634-0.134-0.854-0.35l0 0c-0.218-0.215-0.352-0.514-0.352-0.844s0.135-0.629 0.352-0.844l0-0 1.925-1.918 1.703 1.695-1.919 1.911zM18.32 50.822l-0.003 0.003-3.529 3.52-1.704-1.695 3.53-3.514c0.080-0.080 0.13-0.176 0.179-0.272 0.014-0.027 0.040-0.051 0.052-0.080 0.033-0.082 0.038-0.171 0.051-0.257 0.006-0.049 0.027-0.095 0.027-0.146 0-0.070-0.026-0.14-0.040-0.21-0.013-0.064-0.013-0.129-0.038-0.191-0.049-0.106-0.11-0.196-0.184-0.276l0.001 0.001c-0.020-0.024-0.027-0.053-0.049-0.076h-0.002s0-0.003-0.002-0.005l-3.214-3.2c-0.034-0.034-0.078-0.048-0.116-0.077-0.051-0.042-0.108-0.080-0.168-0.112l-0.005-0.003c-0.053-0.025-0.116-0.047-0.181-0.063l-0.007-0.001c-0.060-0.019-0.13-0.033-0.202-0.040l-0.004-0c-0.014-0.001-0.030-0.001-0.046-0.001-0.051 0-0.102 0.004-0.151 0.011l0.006-0.001c-0.071 0.009-0.138 0.018-0.208 0.041-0.068 0.021-0.127 0.055-0.189 0.090-0.039 0.022-0.084 0.030-0.122 0.058l-3.546 2.648-1.801-1.795 4.797-4.773 8.722 8.578-1.856 1.838zM31.957 36.788c-0.030-0.005-0.059 0.007-0.090 0.005-0.016-0.001-0.035-0.001-0.053-0.001-0.063 0-0.124 0.005-0.183 0.016l0.006-0.001c-0.060 0.011-0.119 0.023-0.176 0.043-0.074 0.027-0.138 0.058-0.197 0.096l0.004-0.002c-0.063 0.038-0.117 0.079-0.167 0.124l0.001-0.001c-0.026 0.022-0.057 0.033-0.080 0.059l-9.395 10.291-8.656-8.513 5.666-5.637c0.193-0.193 0.312-0.46 0.312-0.754 0-0.59-0.478-1.068-1.068-1.068-0.001 0-0.002 0-0.003 0h0l-4.438 0.026 0.056-3.215 6.208 0.053c2.527 2.593 6.054 4.202 9.957 4.202 0.002 0 0.004 0 0.007 0h-0c0.875 0 1.728-0.091 2.559-0.245 0.080 0.064 0.159 0.128 0.259 0.169l4.82 1.92 0.304 1.517 0.357 1.771-6.006-0.855zM40.039 37.145l-0.625-3.116 2.893-2.16 1.893 2.513-4.16 2.763zM47.547 31.483l-1.676 1.57-1.862-2.472 1.662-1.274c0.311-0.239 0.702-0.336 1.086-0.286 0.386 0.055 0.728 0.256 0.96 0.569 0.176 0.235 0.282 0.531 0.282 0.851 0 0.411-0.174 0.782-0.452 1.042l-0.001 0.001z"></path><path fill="#212121" style="fill: var(--color3, #212121)" d="M27.205 37.088l-4.286-4.267c-0.193-0.192-0.459-0.311-0.752-0.311s-0.56 0.119-0.753 0.311l-4.285 4.267c-0.193 0.194-0.312 0.461-0.312 0.756s0.119 0.562 0.312 0.756l-0-0 4.284 4.267c0.193 0.192 0.459 0.311 0.753 0.311s0.56-0.119 0.753-0.311v0l4.286-4.267c0.194-0.193 0.314-0.461 0.314-0.756s-0.12-0.563-0.314-0.756l-0-0zM22.167 40.606l-2.774-2.761 2.773-2.762 2.775 2.761-2.775 2.761zM34.329 10.141l-0.516 2.072c0.143 0.036 3.475 0.903 3.475 4.297h2.134c0-4.034-3.332-5.93-5.093-6.369zM39.422 18.644h-2.134v2.133h2.134v-2.133z"></path></symbol><symbol id="icon-instagram" viewBox="0 0 64 64"><path  d="M63.936 18.816c-.147-3.402-.698-5.738-1.485-7.763a15.69 15.69 0 0 0-3.7-5.674l-.003-.003a15.773 15.773 0 0 0-5.556-3.653l-.108-.037C51.046.899 48.722.352 45.321.201c-3.424-.163-4.512-.202-13.203-.202-8.688 0-9.776.038-13.19.189-3.398.147-5.738.698-7.76 1.485a15.68 15.68 0 0 0-5.677 3.7l-.003.003a15.779 15.779 0 0 0-3.65 5.556l-.037.108c-.79 2.038-1.338 4.362-1.488 7.763C.15 22.227.111 23.315.111 32.006c0 8.688.038 9.776.189 13.19.15 3.402.701 5.738 1.488 7.763a15.87 15.87 0 0 0 3.697 5.675l.002.002a15.738 15.738 0 0 0 5.664 3.686c2.038.79 4.365 1.341 7.763 1.488 3.414.15 4.502.189 13.19.189 8.691 0 9.779-.038 13.19-.189 3.402-.147 5.738-.698 7.763-1.485 4.315-1.7 7.666-5.052 9.328-9.255l.039-.111c.787-2.038 1.338-4.365 1.488-7.763.15-3.414.186-4.502.186-13.19s-.013-9.776-.16-13.19zm-5.76 26.131c-.141 3.126-.666 4.813-1.101 5.939-1.104 2.799-3.28 4.972-6.008 6.049l-.072.025c-1.12.438-2.822.963-5.936 1.101-3.376.15-4.387.189-12.928.189-8.538 0-9.565-.038-12.928-.189-3.126-.138-4.813-.662-5.939-1.101a9.892 9.892 0 0 1-3.671-2.385l-.002-.002a9.97 9.97 0 0 1-2.368-3.605L7.2 50.9c-.435-1.126-.96-2.826-1.098-5.939-.15-3.376-.189-4.39-.189-12.928 0-8.541.038-9.568.189-12.928.138-3.126.662-4.813 1.098-5.939a9.772 9.772 0 0 1 2.397-3.674l.003-.003a9.947 9.947 0 0 1 3.612-2.365l.068-.023c1.12-.438 2.822-.96 5.936-1.101 3.376-.147 4.39-.186 12.928-.186 8.55 0 9.565.038 12.928.186 3.126.138 4.813.662 5.939 1.101a9.842 9.842 0 0 1 3.674 2.387 9.989 9.989 0 0 1 2.39 3.68c.435 1.12.96 2.822 1.098 5.936.15 3.376.189 4.387.189 12.928 0 8.538-.038 9.536-.189 12.915z"/><path  d="M32.118 15.565c-9.078.004-16.437 7.363-16.438 16.441.182 8.942 7.473 16.12 16.442 16.12s16.26-7.179 16.441-16.103v-.017c-.002-9.08-7.362-16.44-16.441-16.442zm0 27.104c-5.89-.001-10.664-4.776-10.664-10.666s4.775-10.666 10.666-10.666h.002c5.891 0 10.667 4.776 10.667 10.667s-4.776 10.667-10.667 10.667zM53.05 14.915a3.84 3.84 0 1 1-7.68 0 3.84 3.84 0 1 1 7.68 0z"/></symbol><symbol id="icon-twitter" viewBox="0 0 64 64"><path  d="M64 12.157c-2.2.987-4.752 1.714-7.425 2.056l-.136.014c2.72-1.633 4.764-4.156 5.747-7.159l.026-.092c-2.395 1.445-5.183 2.546-8.152 3.146l-.168.028a13.085 13.085 0 0 0-9.574-4.151c-7.244 0-13.117 5.873-13.117 13.117v.008c0 1.04.086 2.042.304 2.992-10.909-.531-20.56-5.76-27.043-13.722a13.059 13.059 0 0 0-1.805 6.625v.002c0 4.544 2.342 8.573 5.827 10.902a12.91 12.91 0 0 1-5.988-1.646l.065.034v.144c.006 6.33 4.473 11.615 10.426 12.881l.086.015c-.997.273-2.143.429-3.325.429l-.122-.001h.006c-.838 0-1.686-.048-2.483-.224 1.699 5.197 6.522 9.018 12.259 9.139-4.43 3.491-10.092 5.6-16.246 5.6h-.024.001c-1.075 0-2.106-.051-3.139-.182C5.653 55.804 12.575 58 20.009 58h.125-.006c24.144 0 37.344-20 37.344-37.338 0-.576-.019-1.139-.048-1.696a26.407 26.407 0 0 0 6.517-6.713l.059-.094z"/></symbol><symbol id="icon-facebook" viewBox="0 0 64 64"><path  d="M42.656 10.624h5.846V.448c-2.465-.286-5.321-.449-8.215-.449L39.974 0h.016c-8.426 0-14.198 5.299-14.198 15.04V24h-9.293v11.376h9.293V64H37.19V35.379h8.918l1.418-11.376H37.187V16.16c0-3.286.886-5.536 5.469-5.536z"/></symbol><symbol id="icon-linkedin" viewBox="0 0 64 64"><path  d="M63.984 64H64V40.525c0-11.482-2.47-20.326-15.894-20.326-6.454 0-10.784 3.539-12.554 6.899h-.186v-5.827h-12.73v42.726H35.89V42.842c0-5.571 1.056-10.96 7.955-10.96 6.797 0 6.899 6.358 6.899 11.315V64h13.238zM1.056 21.27h13.27V64H1.056V21.27zM7.686 0A7.686 7.686 0 0 0 0 7.686c0 4.24 3.443 7.757 7.686 7.757 4.24 0 7.683-3.514 7.683-7.757A7.689 7.689 0 0 0 7.686 0z"/></symbol><symbol id="icon-close" viewBox="0 0 64 64"><path d="M64 6.446l-6.446-6.446-25.554 25.554-25.554-25.554-6.446 6.446 25.554 25.554-25.554 25.554 6.446 6.446 25.554-25.554 25.554 25.554 6.446-6.446-25.554-25.554 25.554-25.554z"></path></symbol></defs></svg>